<mxfile host="Electron" modified="2024-06-24T20:23:12.310Z" agent="Mozilla/5.0 (Windows NT 10.0; Win64; x64) AppleWebKit/537.36 (KHTML, like Gecko) draw.io/24.5.3 Chrome/124.0.6367.207 Electron/30.0.6 Safari/537.36" etag="GOaY9vKyIi8EZDf0trTX" version="24.5.3" type="device">
  <diagram name="Página-1" id="ZlDg3TrcjDPQPHaSJcSc">
    <mxGraphModel dx="1200" dy="674" grid="1" gridSize="10" guides="1" tooltips="1" connect="1" arrows="1" fold="1" page="1" pageScale="1" pageWidth="1169" pageHeight="827" math="0" shadow="0">
      <root>
        <mxCell id="0" />
        <mxCell id="1" parent="0" />
        <mxCell id="taTGbVpkX1h-tKyCRKcc-1" value="" style="group;strokeWidth=2;" vertex="1" connectable="0" parent="1">
          <mxGeometry x="90" y="179.9999999999999" width="160" height="45" as="geometry" />
        </mxCell>
        <mxCell id="taTGbVpkX1h-tKyCRKcc-2" value="Agendamento&lt;div&gt;(EventBridge)&lt;/div&gt;" style="rounded=0;whiteSpace=wrap;html=1;sketch=1;fontFamily=Architects Daughter;fontSource=https://fonts.googleapis.com/css?family=Architects+Daughter;spacingLeft=43;align=center;container=0;strokeWidth=2;" vertex="1" parent="taTGbVpkX1h-tKyCRKcc-1">
          <mxGeometry width="160" height="45" as="geometry" />
        </mxCell>
        <mxCell id="taTGbVpkX1h-tKyCRKcc-3" value="" style="sketch=0;points=[[0,0,0],[0.25,0,0],[0.5,0,0],[0.75,0,0],[1,0,0],[0,1,0],[0.25,1,0],[0.5,1,0],[0.75,1,0],[1,1,0],[0,0.25,0],[0,0.5,0],[0,0.75,0],[1,0.25,0],[1,0.5,0],[1,0.75,0]];outlineConnect=0;fontColor=#232F3E;fillColor=#E7157B;strokeColor=#ffffff;dashed=0;verticalLabelPosition=bottom;verticalAlign=top;align=center;html=1;fontSize=10;fontStyle=0;aspect=fixed;shape=mxgraph.aws4.resourceIcon;resIcon=mxgraph.aws4.eventbridge;strokeWidth=2;" vertex="1" parent="taTGbVpkX1h-tKyCRKcc-1">
          <mxGeometry x="18.25" y="9.000000000000114" width="25" height="25" as="geometry" />
        </mxCell>
        <mxCell id="taTGbVpkX1h-tKyCRKcc-16" value="" style="group" vertex="1" connectable="0" parent="1">
          <mxGeometry x="640" y="399.9999999999999" width="160" height="45" as="geometry" />
        </mxCell>
        <mxCell id="taTGbVpkX1h-tKyCRKcc-11" value="Disponibilização&amp;nbsp;&lt;br&gt;&lt;span style=&quot;background-color: initial;&quot;&gt;(Athena)&lt;/span&gt;" style="rounded=0;whiteSpace=wrap;html=1;sketch=1;fontFamily=Architects Daughter;fontSource=https://fonts.googleapis.com/css?family=Architects+Daughter;spacingLeft=43;align=center;container=0;strokeWidth=2;" vertex="1" parent="taTGbVpkX1h-tKyCRKcc-16">
          <mxGeometry width="160" height="45" as="geometry" />
        </mxCell>
        <mxCell id="taTGbVpkX1h-tKyCRKcc-15" value="" style="outlineConnect=0;dashed=0;verticalLabelPosition=bottom;verticalAlign=top;align=center;html=1;shape=mxgraph.aws3.athena;fillColor=#F58534;gradientColor=none;aspect=fixed;" vertex="1" parent="taTGbVpkX1h-tKyCRKcc-16">
          <mxGeometry x="10" y="10.000000000000114" width="25" height="25" as="geometry" />
        </mxCell>
        <mxCell id="taTGbVpkX1h-tKyCRKcc-17" value="" style="group" vertex="1" connectable="0" parent="1">
          <mxGeometry x="380" y="399.9999999999999" width="160" height="45" as="geometry" />
        </mxCell>
        <mxCell id="taTGbVpkX1h-tKyCRKcc-13" value="Trensformação / Enriquecimento&amp;nbsp;&lt;br&gt;&lt;span style=&quot;background-color: initial;&quot;&gt;(Glue)&lt;/span&gt;" style="rounded=0;whiteSpace=wrap;html=1;sketch=1;fontFamily=Architects Daughter;fontSource=https://fonts.googleapis.com/css?family=Architects+Daughter;spacingLeft=43;align=center;container=0;strokeWidth=2;" vertex="1" parent="taTGbVpkX1h-tKyCRKcc-17">
          <mxGeometry width="160" height="45" as="geometry" />
        </mxCell>
        <mxCell id="taTGbVpkX1h-tKyCRKcc-14" value="" style="sketch=0;points=[[0,0,0],[0.25,0,0],[0.5,0,0],[0.75,0,0],[1,0,0],[0,1,0],[0.25,1,0],[0.5,1,0],[0.75,1,0],[1,1,0],[0,0.25,0],[0,0.5,0],[0,0.75,0],[1,0.25,0],[1,0.5,0],[1,0.75,0]];outlineConnect=0;fontColor=#232F3E;fillColor=#8C4FFF;strokeColor=#ffffff;dashed=0;verticalLabelPosition=bottom;verticalAlign=top;align=center;html=1;fontSize=12;fontStyle=0;aspect=fixed;shape=mxgraph.aws4.resourceIcon;resIcon=mxgraph.aws4.glue;" vertex="1" parent="taTGbVpkX1h-tKyCRKcc-17">
          <mxGeometry x="10" y="10.000000000000114" width="25" height="25" as="geometry" />
        </mxCell>
        <mxCell id="taTGbVpkX1h-tKyCRKcc-18" value="" style="group" vertex="1" connectable="0" parent="1">
          <mxGeometry x="380" y="299.9999999999999" width="160" height="45" as="geometry" />
        </mxCell>
        <mxCell id="taTGbVpkX1h-tKyCRKcc-9" value="Ingestão Dados&lt;div&gt;(Glue)&lt;/div&gt;" style="rounded=0;whiteSpace=wrap;html=1;sketch=1;fontFamily=Architects Daughter;fontSource=https://fonts.googleapis.com/css?family=Architects+Daughter;spacingLeft=43;align=center;container=0;strokeWidth=2;" vertex="1" parent="taTGbVpkX1h-tKyCRKcc-18">
          <mxGeometry width="160" height="45" as="geometry" />
        </mxCell>
        <mxCell id="taTGbVpkX1h-tKyCRKcc-8" value="" style="sketch=0;points=[[0,0,0],[0.25,0,0],[0.5,0,0],[0.75,0,0],[1,0,0],[0,1,0],[0.25,1,0],[0.5,1,0],[0.75,1,0],[1,1,0],[0,0.25,0],[0,0.5,0],[0,0.75,0],[1,0.25,0],[1,0.5,0],[1,0.75,0]];outlineConnect=0;fontColor=#232F3E;fillColor=#8C4FFF;strokeColor=#ffffff;dashed=0;verticalLabelPosition=bottom;verticalAlign=top;align=center;html=1;fontSize=12;fontStyle=0;aspect=fixed;shape=mxgraph.aws4.resourceIcon;resIcon=mxgraph.aws4.glue;" vertex="1" parent="taTGbVpkX1h-tKyCRKcc-18">
          <mxGeometry x="10" y="10.000000000000114" width="25" height="25" as="geometry" />
        </mxCell>
        <mxCell id="taTGbVpkX1h-tKyCRKcc-21" value="" style="group" vertex="1" connectable="0" parent="1">
          <mxGeometry x="380" y="179.9999999999999" width="160" height="45" as="geometry" />
        </mxCell>
        <mxCell id="taTGbVpkX1h-tKyCRKcc-5" value="Orquestração&lt;div&gt;(StepFunction)&lt;/div&gt;" style="rounded=0;whiteSpace=wrap;html=1;sketch=1;fontFamily=Architects Daughter;fontSource=https://fonts.googleapis.com/css?family=Architects+Daughter;spacingLeft=43;align=center;container=0;strokeWidth=2;" vertex="1" parent="taTGbVpkX1h-tKyCRKcc-21">
          <mxGeometry width="160" height="45" as="geometry" />
        </mxCell>
        <mxCell id="taTGbVpkX1h-tKyCRKcc-7" value="" style="sketch=0;points=[[0,0,0],[0.25,0,0],[0.5,0,0],[0.75,0,0],[1,0,0],[0,1,0],[0.25,1,0],[0.5,1,0],[0.75,1,0],[1,1,0],[0,0.25,0],[0,0.5,0],[0,0.75,0],[1,0.25,0],[1,0.5,0],[1,0.75,0]];outlineConnect=0;fontColor=#232F3E;fillColor=#E7157B;strokeColor=#ffffff;dashed=0;verticalLabelPosition=bottom;verticalAlign=top;align=center;html=1;fontSize=12;fontStyle=0;aspect=fixed;shape=mxgraph.aws4.resourceIcon;resIcon=mxgraph.aws4.step_functions;" vertex="1" parent="taTGbVpkX1h-tKyCRKcc-21">
          <mxGeometry x="10" y="10.000000000000114" width="25" height="25" as="geometry" />
        </mxCell>
        <mxCell id="taTGbVpkX1h-tKyCRKcc-23" style="edgeStyle=orthogonalEdgeStyle;rounded=0;orthogonalLoop=1;jettySize=auto;html=1;entryX=0;entryY=0.5;entryDx=0;entryDy=0;flowAnimation=1;" edge="1" parent="1" source="taTGbVpkX1h-tKyCRKcc-2" target="taTGbVpkX1h-tKyCRKcc-5">
          <mxGeometry relative="1" as="geometry" />
        </mxCell>
        <mxCell id="taTGbVpkX1h-tKyCRKcc-24" style="edgeStyle=orthogonalEdgeStyle;rounded=0;orthogonalLoop=1;jettySize=auto;html=1;entryX=0.5;entryY=0;entryDx=0;entryDy=0;flowAnimation=1;" edge="1" parent="1" source="taTGbVpkX1h-tKyCRKcc-5" target="taTGbVpkX1h-tKyCRKcc-9">
          <mxGeometry relative="1" as="geometry" />
        </mxCell>
        <mxCell id="taTGbVpkX1h-tKyCRKcc-25" style="edgeStyle=orthogonalEdgeStyle;rounded=0;orthogonalLoop=1;jettySize=auto;html=1;flowAnimation=1;" edge="1" parent="1" source="taTGbVpkX1h-tKyCRKcc-9" target="taTGbVpkX1h-tKyCRKcc-13">
          <mxGeometry relative="1" as="geometry" />
        </mxCell>
        <mxCell id="taTGbVpkX1h-tKyCRKcc-26" style="edgeStyle=orthogonalEdgeStyle;rounded=0;orthogonalLoop=1;jettySize=auto;html=1;entryX=0;entryY=0.5;entryDx=0;entryDy=0;flowAnimation=1;" edge="1" parent="1" source="taTGbVpkX1h-tKyCRKcc-13" target="taTGbVpkX1h-tKyCRKcc-11">
          <mxGeometry relative="1" as="geometry" />
        </mxCell>
        <mxCell id="taTGbVpkX1h-tKyCRKcc-29" value="" style="rounded=1;arcSize=10;dashed=0;fillColor=none;gradientColor=none;strokeWidth=2;sketch=1;curveFitting=1;jiggle=2;" vertex="1" parent="1">
          <mxGeometry x="60" y="150" width="770" height="320" as="geometry" />
        </mxCell>
        <mxCell id="taTGbVpkX1h-tKyCRKcc-30" value="" style="dashed=0;html=1;shape=mxgraph.aws3.cloud;fillColor=#F58536;gradientColor=none;dashed=0;" vertex="1" parent="1">
          <mxGeometry x="70" y="130" width="52" height="36" as="geometry" />
        </mxCell>
        <mxCell id="taTGbVpkX1h-tKyCRKcc-31" value="&lt;div style=&quot;line-height: 19px; white-space: pre;&quot;&gt;&lt;span style=&quot;font-weight: bold;&quot;&gt;&lt;font style=&quot;font-size: 26px;&quot; face=&quot;Architects Daughter&quot;&gt;Pipe Line de Dados&lt;/font&gt;&lt;/span&gt;&lt;/div&gt;" style="text;html=1;align=center;verticalAlign=middle;whiteSpace=wrap;rounded=0;fillColor=none;" vertex="1" parent="1">
          <mxGeometry x="210" y="100" width="60" height="30" as="geometry" />
        </mxCell>
        <mxCell id="taTGbVpkX1h-tKyCRKcc-33" value="&lt;div style=&quot;line-height: 19px; white-space: pre;&quot;&gt;&lt;div style=&quot;font-family: Consolas, &amp;quot;Courier New&amp;quot;, monospace; font-size: 14px; line-height: 19px;&quot;&gt;&lt;span style=&quot;font-weight: bold;&quot;&gt;&lt;font color=&quot;#4d4d4d&quot;&gt;Cloudwatch Event Rule -&amp;gt; Stepfunction -&amp;gt; Glue -&amp;gt; Athena&lt;/font&gt;&lt;/span&gt;&lt;/div&gt;&lt;/div&gt;" style="text;html=1;align=center;verticalAlign=middle;whiteSpace=wrap;rounded=0;fillColor=none;" vertex="1" parent="1">
          <mxGeometry x="310" y="120" width="60" height="30" as="geometry" />
        </mxCell>
      </root>
    </mxGraphModel>
  </diagram>
</mxfile>
